<?xml version="1.0" standalone="no"?>
<!DOCTYPE svg PUBLIC "-//W3C//DTD SVG 20010904//EN"
 "http://www.w3.org/TR/2001/REC-SVG-20010904/DTD/svg10.dtd">
<svg version="1.0" xmlns="http://www.w3.org/2000/svg"
 width="400.000000pt" height="400.000000pt" viewBox="0 0 400.000000 400.000000"
 preserveAspectRatio="xMidYMid meet">
<metadata>
Created by potrace 1.11, written by Peter Selinger 2001-2013
</metadata>
<g transform="translate(0.000000,400.000000) scale(0.100000,-0.100000)"
fill="#000000" stroke="none">
<path d="M741 2793 c-7 -15 -56 -101 -110 -192 -249 -422 -341 -579 -347 -597
-4 -10 -13 -26 -20 -34 -7 -8 -12 -17 -12 -20 1 -3 -31 -69 -70 -148 -39 -78
-69 -148 -66 -155 2 -7 -14 -38 -36 -69 -22 -31 -42 -69 -45 -85 -2 -15 -7
-44 -10 -63 -2 -19 -7 -48 -11 -65 l-6 -30 36 37 c20 20 50 45 66 55 29 17 53
57 80 135 8 20 18 34 23 31 10 -6 19 6 109 148 38 59 68 112 68 118 0 6 3 11
8 11 9 0 47 61 97 155 21 39 52 97 70 130 18 33 48 89 67 125 20 36 45 82 56
102 11 20 49 90 83 155 35 65 76 138 91 163 27 42 28 46 11 58 -18 13 -109 62
-116 62 -2 0 -9 -12 -16 -27z"/>
<path d="M1165 2493 c-58 -7 -141 -35 -210 -71 -72 -38 -168 -124 -178 -161
-9 -35 9 -24 46 27 54 76 221 152 332 152 86 0 168 -48 160 -93 -6 -32 -32
-49 -145 -97 -55 -23 -107 -52 -115 -64 -15 -20 -14 -21 51 -33 144 -27 225
-113 202 -217 -13 -59 -48 -107 -110 -149 -132 -91 -292 -78 -342 28 -30 62
-9 166 57 285 34 61 84 164 91 188 5 15 3 22 -7 22 -25 0 -52 -43 -135 -210
-107 -216 -119 -288 -60 -373 47 -66 159 -88 270 -52 68 23 174 92 227 151 79
85 107 192 69 267 -20 40 -86 94 -127 104 -45 10 -44 14 16 50 100 61 137 114
117 172 -18 50 -117 85 -209 74z"/>
<path d="M1543 2488 c-12 -6 -24 -22 -27 -37 -3 -14 -26 -134 -51 -266 -26
-132 -48 -247 -50 -255 -28 -124 -38 -175 -42 -225 -5 -54 -3 -58 10 -45 14
14 62 190 86 315 6 28 20 93 31 145 35 160 75 381 68 379 -2 0 -13 -5 -25 -11z"/>
<path d="M2598 2495 c-2 -2 -21 -5 -44 -8 -84 -12 -233 -84 -295 -143 -31 -29
-74 -104 -61 -104 6 0 26 22 45 48 59 83 222 153 344 148 99 -3 162 -49 142
-103 -8 -23 -63 -54 -164 -93 -33 -12 -71 -34 -84 -48 l-24 -26 74 -16 c138
-30 199 -85 199 -180 0 -143 -185 -272 -342 -239 -100 22 -146 107 -118 216 6
26 46 116 88 200 41 84 73 155 70 159 -4 3 -16 3 -27 -1 -13 -4 -49 -64 -112
-189 -87 -174 -92 -188 -97 -260 -4 -70 -2 -79 22 -116 88 -133 317 -101 486
69 93 94 126 198 90 280 -20 44 -88 99 -133 108 -43 9 -40 18 11 46 145 79
173 177 66 230 -26 13 -128 30 -136 22z"/>
<path d="M3607 2478 c-12 -9 -19 -32 -22 -73 -9 -113 -26 -200 -71 -375 -25
-96 -56 -221 -69 -277 -27 -120 -20 -129 44 -57 l40 46 12 -26 c24 -53 156
-87 193 -50 25 24 20 31 -36 49 -54 17 -98 54 -98 82 0 30 33 70 91 109 60 40
80 64 53 64 -29 0 -107 -54 -170 -117 -35 -36 -64 -62 -64 -59 0 3 22 95 49
203 59 237 70 291 78 406 6 89 2 98 -30 75z"/>
<path d="M1615 1954 c-71 -37 -134 -129 -142 -207 -6 -64 15 -90 74 -89 75 1
168 59 210 130 64 110 -33 223 -142 166z m39 -54 c28 -10 56 -57 56 -92 -1
-68 -129 -124 -167 -73 -17 25 -17 67 2 113 25 59 54 73 109 52z"/>
<path d="M1934 1951 c-87 -40 -141 -127 -122 -198 23 -88 130 -90 212 -4 36
37 28 39 -28 6 -60 -35 -98 -26 -121 30 -27 64 12 125 80 125 74 0 120 -57
104 -129 -9 -42 -48 -79 -137 -133 -34 -20 -62 -42 -62 -48 0 -6 12 -16 28
-22 39 -17 62 -39 62 -59 0 -23 -58 -40 -125 -37 -35 1 -51 -4 -68 -20 -32
-33 -12 -45 65 -40 149 9 247 117 173 190 l-25 25 25 13 c37 20 104 95 120
135 53 125 -55 224 -181 166z"/>
<path d="M2930 1949 c-73 -45 -132 -141 -133 -217 -2 -56 18 -75 78 -74 112 3
254 139 228 220 -27 87 -98 116 -173 71z m70 -66 c60 -55 36 -136 -48 -161
-76 -23 -110 13 -91 96 20 90 80 118 139 65z"/>
<path d="M3265 1956 c-62 -27 -142 -143 -149 -214 -10 -112 136 -113 251 -1
73 70 80 145 21 201 -34 31 -73 36 -123 14z m57 -75 c60 -53 33 -138 -51 -161
-41 -11 -80 4 -91 35 -11 30 15 117 40 137 32 26 65 22 102 -11z"/>
<path d="M1157 1604 c-1 -1 -33 -5 -72 -8 -164 -16 -386 -65 -660 -148 -284
-86 -443 -146 -416 -155 12 -5 94 15 161 38 147 51 540 165 634 184 433 86
577 51 657 -159 43 -115 69 -151 123 -171 105 -40 247 4 431 134 112 80 213
135 287 156 75 21 190 25 253 8 69 -18 238 -45 370 -59 151 -16 1031 -3 1063
15 16 10 15 10 -3 12 -29 1 -258 -2 -405 -7 -173 -5 -505 -4 -565 1 -27 2 -79
7 -115 10 -69 6 -275 50 -319 67 -14 6 -64 12 -111 14 -145 6 -245 -31 -486
-181 -250 -155 -364 -177 -423 -82 -12 19 -30 60 -41 91 -57 167 -137 229
-308 239 -29 2 -54 2 -55 1z"/>
</g>
</svg>
